# xmcd CD database file
#
# Track frame offsets:
#	150
#	15964
#	32936
#	48833
#	68500
#	86107
#	100887
#	116484
#	131543
#	155820
#	174255
#	196177
#
# Disc length: 2988 seconds
#
# Revision: 3
# Processed by: cddbd v1.5.1PL2 Copyright (c) Steve Scherf et al.
# Submitted via: CDex 1.51
#
DISCID=910baa0c
DTITLE=矢井田瞳 - i/Flancy
DYEAR=2002
DGENRE=Japanese Pop
TTITLE0=Creamed Potatoes
TTITLE1=未完成のメロディ
TTITLE2=アンダンテ
TTITLE3=Ring My Bell
TTITLE4=虹のドライブ
TTITLE5=Change Your Mind
TTITLE6=Dizzy Dive
TTITLE7=会いたい人
TTITLE8=I Can Fly
TTITLE9=I Really Want To Understand You
TTITLE10=明日からの手紙
TTITLE11=Life's Like A Love Song (Live Version 〜2002. 夏. 大阪〜)
EXTD=YEAR: 2002
EXTT0=
EXTT1=
EXTT2=
EXTT3=
EXTT4=
EXTT5=
EXTT6=
EXTT7=
EXTT8=
EXTT9=
EXTT10=
EXTT11=
PLAYORDER=
